<svg xmlns="http://www.w3.org/2000/svg" viewBox="0 0 1920 934" preserveAspectRatio="xMidYMid" width="1920" height="934" style="shape-rendering: auto; display: block; background: rgb(163, 186, 223);" xmlns:xlink="http://www.w3.org/1999/xlink"><g style="transform:translate(960.0px,467.0px) scale(1,-1) translate(-960.0px,-467.0px)"><defs>
<linearGradient y2="1" y1="0" x2="0" x1="0" id="lg-bk-n2c88aimwtj">
  <stop offset="0" stop-opacity="0" stop-color="#dffff9"></stop>
  <stop offset="0.8250000000000001" stop-opacity="1" stop-color="#dffff9"></stop>
</linearGradient>
<linearGradient y2="1" y1="0" x2="0" x1="0" id="lg-jg6mq6wfbyj">
  <stop offset="0" stop-color="rgba(95, 202, 255, 0.394)"></stop>
  <stop offset="0.37" stop-color="#0075fc"></stop>
  <stop offset="1" stop-color="#003067"></stop>
</linearGradient>
</defs>
<rect fill="url(#lg-bk-n2c88aimwtj)" height="934" width="1920" y="0" x="0"></rect><g>
<path opacity="0.4" fill="url(#lg-jg6mq6wfbyj)" d="M0 616.44
C960 616.44 960 708.5324 1920 708.5324
C2880 708.5324 2880 616.44 3840 616.44
C4800 616.44 4800 708.5324 5760 708.5324
C6720 708.5324 6720 616.44 7680 616.44
L7680 934 L0 934 Z">
  <animateTransform values="-3840 0;0 0" begin="0s" keyTimes="0;1" repeatCount="indefinite" dur="10s" type="translate" attributeName="transform"></animateTransform>
</path>
<animateTransform values="0 0;0 10; 0" begin="0s" keyTimes="0;0.5;1" keySplines="0.3 0 0.7 1;0.3 0 0.7 1" calcMode="spline" repeatCount="indefinite" dur="10s" type="translate" attributeName="transform"></animateTransform>
</g><g>
<path opacity="0.4" fill="url(#lg-jg6mq6wfbyj)" d="M0 616.44
C960 616.44 960 708.5324 1920 708.5324
C2880 708.5324 2880 616.44 3840 616.44
C4800 616.44 4800 708.5324 5760 708.5324
C6720 708.5324 6720 616.44 7680 616.44
L7680 934 L0 934 Z">
  <animateTransform values="-3840 0;0 0" begin="-0.46666666666666673s" keyTimes="0;1" repeatCount="indefinite" dur="10s" type="translate" attributeName="transform"></animateTransform>
</path>
<animateTransform values="0 0;0 10; 0" begin="-3.3333333333333335s" keyTimes="0;0.5;1" keySplines="0.3 0 0.7 1;0.3 0 0.7 1" calcMode="spline" repeatCount="indefinite" dur="10s" type="translate" attributeName="transform"></animateTransform>
</g><g>
<path opacity="0.4" fill="url(#lg-jg6mq6wfbyj)" d="M0 616.44
C960 616.44 960 708.5324 1920 708.5324
C2880 708.5324 2880 616.44 3840 616.44
C4800 616.44 4800 708.5324 5760 708.5324
C6720 708.5324 6720 616.44 7680 616.44
L7680 934 L0 934 Z">
  <animateTransform values="-3840 0;0 0" begin="-0.9333333333333335s" keyTimes="0;1" repeatCount="indefinite" dur="10s" type="translate" attributeName="transform"></animateTransform>
</path>
<animateTransform values="0 0;0 10; 0" begin="-6.666666666666667s" keyTimes="0;0.5;1" keySplines="0.3 0 0.7 1;0.3 0 0.7 1" calcMode="spline" repeatCount="indefinite" dur="10s" type="translate" attributeName="transform"></animateTransform>
</g><g></g></g><!-- [ldio] generated by https://loading.io --></svg>